<?xml version="1.0" standalone="no"?>
<!DOCTYPE svg PUBLIC "-//W3C//DTD SVG 20010904//EN"
 "http://www.w3.org/TR/2001/REC-SVG-20010904/DTD/svg10.dtd">
<svg version="1.0" xmlns="http://www.w3.org/2000/svg"
 width="800.000000pt" height="800.000000pt" viewBox="0 0 800.000000 800.000000"
 preserveAspectRatio="xMidYMid meet">

<g transform="translate(0.000000,800.000000) scale(0.100000,-0.100000)"
fill="#000000" stroke="none">
<path d="M5185 5353 c6 -5 44 -15 85 -22 41 -6 86 -14 100 -16 14 -3 -2 4 -35
16 -67 23 -166 37 -150 22z"/>
<path d="M4755 5344 c-200 -15 -479 -52 -675 -89 -41 -8 -127 -24 -190 -35
-320 -60 -637 -157 -699 -213 -47 -44 -411 -535 -411 -555 0 -21 -43 -25 -260
-29 -124 -2 -277 -6 -340 -11 l-115 -7 165 -7 c91 -3 181 -8 200 -9 44 -4 322
19 415 33 52 8 65 13 50 19 -17 6 -15 8 10 8 17 1 46 5 65 11 41 12 81 4 59
-12 -9 -6 -6 -7 11 -1 14 4 44 8 67 8 24 0 37 3 30 8 -7 4 -2 7 13 6 14 -1 34
-1 45 1 15 2 13 4 -10 10 l-30 8 30 1 c86 6 565 59 535 60 -72 2 -675 -60
-823 -85 l-38 -7 77 112 c78 113 143 173 269 246 138 81 488 166 858 209 208
24 240 33 278 79 37 45 347 94 531 84 213 -12 333 -52 440 -147 55 -49 57 -53
97 -178 22 -70 42 -146 45 -169 l6 -42 -42 -5 c-24 -3 -59 -7 -78 -9 -29 -3
68 -10 162 -11 14 -1 24 -5 20 -10 -3 -5 2 -6 12 -3 10 4 39 8 64 8 27 1 36 4
22 6 -27 5 -52 23 -32 23 19 0 15 18 -34 135 -25 61 -63 157 -85 214 -49 130
-75 175 -136 236 -61 60 -89 74 -182 91 -79 14 -309 25 -396 18z m-1553 -410
c-24 -20 -49 -49 -57 -64 -15 -29 -83 -97 -113 -114 -20 -11 -21 -12 58 87 30
37 74 81 99 97 59 40 64 38 13 -6z m-99 -461 c-7 -2 -19 -2 -25 0 -7 3 -2 5
12 5 14 0 19 -2 13 -5z"/>
<path d="M6470 5263 c-80 -8 -241 -36 -330 -58 -52 -13 -131 -26 -175 -29 -44
-4 -99 -9 -123 -13 -42 -5 -42 -6 -24 -23 10 -9 34 -25 53 -34 19 -9 70 -50
114 -91 44 -41 83 -75 88 -75 4 0 7 -10 7 -21 0 -18 4 -20 33 -16 17 4 76 9
130 13 54 4 100 11 103 16 3 4 9 6 14 3 5 -3 -4 -18 -20 -33 -20 -20 -39 -63
-65 -144 l-37 -115 -42 4 c-54 5 -71 -7 -61 -43 8 -27 9 -27 12 -7 8 43 84 43
161 0 83 -45 118 -89 157 -194 49 -129 65 -208 65 -324 0 -115 -12 -188 -43
-249 -20 -40 -28 -46 -79 -61 -31 -9 -59 -14 -63 -11 -3 3 -5 16 -5 29 0 13
-3 23 -6 23 -4 0 -40 -35 -81 -77 l-75 -78 74 82 c40 46 76 83 81 83 4 0 7 21
7 46 l0 46 -65 -80 c-36 -44 -68 -83 -73 -86 -4 -2 -6 67 -4 155 3 87 0 159
-4 159 -5 0 -26 -26 -46 -58 -21 -31 -48 -70 -61 -86 l-24 -30 -16 25 c-15 22
-15 29 -1 74 22 76 44 293 44 455 1 151 0 148 38 93 7 -10 6 -4 -3 12 -8 17
-23 41 -34 55 l-21 25 0 -145 0 -146 -34 4 c-31 4 -34 2 -29 -16 3 -14 -1 -22
-14 -25 -12 -3 -9 -5 10 -6 43 -2 32 -18 -18 -26 -25 -3 -43 -10 -40 -15 3 -4
22 -4 42 0 40 10 64 -6 39 -25 -7 -5 -11 -16 -8 -23 7 -23 -9 -84 -21 -79 -22
8 -36 -17 -21 -38 16 -22 19 -81 4 -90 -8 -5 -7 -12 2 -23 7 -9 -21 11 -62 44
-42 32 -87 67 -100 77 -25 18 -25 18 5 1 17 -9 45 -28 63 -41 38 -28 45 -26
46 16 1 23 -4 31 -20 35 -17 5 -23 19 -33 73 -7 38 -19 82 -26 98 l-14 30 5
-30 c2 -16 -6 -2 -19 32 -30 78 -47 104 -115 176 l-55 57 23 22 c19 17 26 19
41 9 11 -6 31 -8 45 -5 24 6 24 7 5 20 -13 9 -57 16 -123 18 -57 2 -96 1 -87
-3 19 -8 119 -94 119 -102 0 -4 -18 -9 -40 -13 -80 -13 -146 -104 -215 -297
-48 -135 -89 -194 -112 -163 -12 17 -13 17 -14 -2 0 -18 -1 -18 -8 1 -6 14 -4
22 6 25 8 3 14 9 13 14 -1 4 6 18 16 30 23 26 55 92 61 126 2 14 22 72 44 128
22 57 38 107 35 110 -3 3 2 14 11 24 22 24 28 54 7 37 -7 -6 -12 -15 -9 -19 3
-4 -1 -12 -8 -18 -14 -12 -61 20 -49 33 4 5 2 5 -5 1 -6 -3 -26 -25 -43 -49
l-32 -42 37 40 37 40 -32 -47 c-18 -26 -37 -45 -41 -42 -5 3 -9 36 -9 75 0 68
0 69 -27 70 -16 0 -41 2 -58 5 -53 7 -288 -35 -372 -67 l-27 -10 19 22 c22 25
9 19 -40 -17 -16 -12 -73 -32 -125 -45 -52 -13 -86 -25 -77 -27 29 -6 19 -21
-20 -31 -51 -15 -63 -14 -63 5 0 8 -5 12 -10 9 -13 -8 -289 -65 -314 -65 -18
0 -18 1 -2 19 25 28 7 34 -82 28 l-77 -6 103 31 c65 20 98 34 90 40 -7 4 -20
8 -28 8 -13 0 -13 -1 0 -11 12 -9 10 -10 -9 -5 -13 2 -81 -8 -150 -24 -280
-62 -582 -104 -885 -120 -177 -9 -396 -4 -396 9 0 3 123 6 273 6 287 1 415 12
712 61 154 25 338 67 258 59 -24 -3 -61 -8 -83 -11 -26 -4 -40 -2 -40 5 0 6
15 11 33 11 17 0 55 7 82 16 28 8 95 17 150 19 55 2 113 8 128 14 35 13 60 13
32 0 -13 -6 6 -8 60 -4 l80 5 -35 -22 c-32 -21 -33 -23 -13 -26 12 -2 119 22
238 52 119 31 237 59 263 62 54 6 68 14 26 14 -16 0 -110 -20 -209 -44 -99
-24 -200 -47 -225 -50 l-45 -7 25 21 25 21 -160 -6 c-213 -9 -277 -13 -295
-18 -20 -6 -171 -24 -410 -48 -107 -11 -276 -31 -376 -44 -101 -14 -188 -25
-194 -25 -9 0 -9 -4 -2 -13 6 -7 31 -12 61 -11 27 0 48 -3 45 -7 -3 -5 -22 -8
-42 -7 -20 1 -46 -2 -56 -7 -14 -6 -17 -5 -12 3 4 7 1 12 -8 12 -8 0 -17 -4
-21 -9 -5 -9 -45 -11 -45 -3 0 1 15 9 33 17 42 19 18 19 -92 0 -81 -14 -98
-14 -174 0 -66 12 -95 13 -132 5 -77 -17 -81 -23 -32 -48 24 -12 52 -22 62
-22 10 0 16 -2 14 -5 -4 -4 -152 -29 -244 -41 -126 -17 -177 -21 -225 -18 -30
1 -128 5 -217 9 -152 6 -161 5 -160 -12 2 -15 -7 -19 -46 -21 -55 -4 -56 10
-4 32 31 13 30 13 -28 9 l-60 -3 40 37 c22 21 51 46 65 56 24 17 24 17 -10 1
-19 -9 -59 -40 -90 -68 -30 -29 -68 -58 -85 -65 -40 -17 -135 -82 -135 -93 0
-15 -26 -8 -43 10 -10 10 -17 28 -17 40 0 12 -4 22 -9 22 -13 0 -54 -57 -90
-125 -18 -33 -30 -51 -27 -40 3 11 -21 -9 -55 -45 -69 -73 -149 -225 -169
-320 -19 -89 -9 -301 19 -380 47 -135 148 -269 263 -348 53 -36 194 -97 264
-112 216 -49 437 -68 594 -51 97 11 219 42 247 63 7 6 124 12 260 14 549 11
950 38 1536 105 l188 21 64 -63 c131 -128 231 -171 520 -221 109 -19 168 -22
360 -23 219 0 233 1 300 24 154 54 314 193 394 342 l29 54 153 -5 c85 -3 235
-5 334 -5 165 0 183 2 215 21 19 11 34 28 34 37 -1 9 2 14 7 12 11 -7 24 46
44 187 14 90 15 124 6 145 -6 16 -9 42 -7 58 3 17 5 33 5 37 1 4 8 5 16 2 8
-4 15 -1 15 5 0 6 -7 11 -16 11 -14 0 -15 7 -10 38 3 20 6 48 6 61 0 24 0 24
15 5 14 -19 14 -18 15 4 0 13 -6 22 -15 22 -11 0 -15 12 -15 45 0 33 4 45 15
45 8 0 15 7 15 15 0 8 -4 15 -10 15 -5 0 -10 11 -10 24 0 14 5 28 10 31 16 10
12 45 -5 45 -8 0 -15 5 -15 10 0 6 7 13 15 16 8 4 15 15 15 26 0 18 -2 19 -17
7 -15 -12 -16 -12 -10 5 5 12 3 22 -5 27 -9 6 -8 12 5 27 19 21 22 38 7 47 -6
4 -9 -3 -7 -16 1 -12 -4 -24 -12 -27 -10 -3 -12 2 -7 21 5 21 3 25 -9 21 -9
-4 -15 0 -15 8 0 9 9 14 23 14 19 -1 22 4 23 39 1 22 7 75 13 118 22 157 9
355 -26 384 -17 14 -17 14 0 9 11 -3 16 -2 12 4 -3 6 -27 9 -53 9 -45 -2 -45
-2 -12 -8 26 -5 31 -8 18 -13 -32 -13 -52 -83 -73 -257 -1 -14 -3 -41 -4 -59
0 -18 -4 -31 -8 -29 -5 3 -7 -23 -7 -56 1 -64 -1 -83 -36 -297 -16 -96 -26
-130 -42 -145 l-21 -20 8 20 c34 90 66 230 64 283 -1 29 -3 23 -10 -23 -13
-91 -48 -194 -73 -220 -23 -23 -131 -53 -144 -41 -5 6 16 187 24 195 2 2 24 7
50 12 27 5 51 15 56 22 4 6 8 38 8 71 l0 59 -49 -7 c-55 -7 -65 0 -76 54 -27
130 -97 320 -118 320 -5 0 -26 15 -46 33 -20 17 -47 39 -61 48 l-25 17 48 138
c27 77 49 145 49 152 1 8 24 12 81 12 66 0 78 2 73 15 -3 8 -1 15 4 15 6 0 10
-4 10 -9 0 -6 32 -9 73 -8 83 2 139 -19 202 -74 l38 -34 -7 39 c-12 61 -65
215 -96 276 -33 64 -62 97 -97 111 -23 9 -117 10 -193 2z m-2605 -855 c-9 -5
-24 -7 -33 -3 -15 6 -15 8 3 15 28 10 53 0 30 -12z m-65 -8 c0 -5 -16 -10 -36
-10 -21 0 -33 4 -29 10 3 6 19 10 36 10 16 0 29 -4 29 -10z m-110 -15 c-7 -8
-16 -15 -20 -15 -4 0 -10 7 -14 15 -4 11 2 15 21 15 21 0 24 -2 13 -15z m-120
-16 c0 -6 -7 -9 -15 -5 -8 3 -15 1 -15 -4 0 -6 -4 -10 -10 -10 -5 0 -10 7 -10
15 0 9 9 15 25 15 14 0 25 -5 25 -11z m-176 -14 c-27 -20 -51 -20 -34 0 7 8
22 15 33 15 20 0 20 0 1 -15z m91 5 c-9 -14 -55 -18 -55 -4 0 8 12 12 30 12
16 -1 27 -4 25 -8z m-225 -20 c-8 -6 -24 -9 -35 -9 -15 0 -13 4 10 14 32 14
49 10 25 -5z m-610 -30 c30 -11 48 -19 40 -20 -25 0 -89 20 -95 30 -8 12 -10
13 55 -10z m2218 -13 c23 -27 -33 -154 -88 -201 -30 -24 -105 -46 -162 -46
l-31 0 5 63 c4 51 32 132 54 156 5 5 170 39 195 40 9 1 21 -5 27 -12z m-2105
-14 c-7 -2 -21 -2 -30 0 -10 3 -4 5 12 5 17 0 24 -2 18 -5z m3294 -70 c-2 -16
-4 -3 -4 27 0 30 2 43 4 28 2 -16 2 -40 0 -55z m-1442 30 c-4 -10 -11 -30 -17
-45 -7 -20 -15 -26 -30 -23 -12 3 -26 9 -32 15 -5 5 -18 10 -28 10 -11 0 -15
5 -12 15 4 8 10 12 15 9 5 -3 9 -1 9 4 0 6 17 14 38 20 57 15 65 14 57 -5z
m-132 -39 c-8 -18 -23 -26 -50 -27 -8 0 -10 -10 -6 -29 3 -15 2 -28 -3 -29 -5
0 -25 -2 -44 -4 -38 -3 -50 7 -49 45 0 14 3 19 6 11 4 -9 7 -10 12 -2 4 6 17
13 29 16 17 3 22 -1 22 -18 0 -18 -2 -19 -10 -7 -5 8 -10 11 -10 5 0 -5 5 -17
10 -25 7 -12 11 -8 16 18 4 17 11 32 16 32 5 0 7 4 4 9 -4 5 2 8 11 7 10 -2
24 3 31 11 18 18 25 12 15 -13z m-748 -54 c0 -11 -13 -16 -50 -18 l-50 -2 24
20 c28 24 76 24 76 0z m585 9 c0 -5 -4 -8 -8 -5 -5 3 -16 -6 -26 -19 -10 -14
-22 -22 -26 -20 -9 6 -23 -62 -16 -74 3 -5 24 -8 46 -7 55 3 51 -11 -4 -16
-36 -2 -50 2 -72 20 -27 24 -46 23 -26 -1 9 -11 2 -16 -36 -25 -26 -7 -72 -15
-102 -18 -46 -5 -58 -3 -72 13 -18 19 -19 47 -2 62 15 15 295 92 306 84 7 -3
8 -1 4 5 -5 8 0 12 13 12 12 0 21 -5 21 -11z m148 -35 c9 -7 13 -19 9 -33 -3
-14 -1 -21 9 -21 15 0 18 5 29 55 l7 30 12 -24 c9 -16 15 -20 18 -11 8 25 28
-1 28 -35 0 -41 -15 -53 -30 -25 -6 11 -16 20 -23 19 -9 0 -9 -2 1 -6 27 -11
10 -31 -30 -36 -52 -7 -58 1 -57 73 0 30 3 48 6 40 4 -8 13 -20 21 -26z m997
-4 c-3 -5 -15 -10 -26 -10 -10 0 -19 5 -19 10 0 6 12 10 26 10 14 0 23 -4 19
-10z m42 4 c-3 -3 -12 -4 -19 -1 -8 3 -5 6 6 6 11 1 17 -2 13 -5z m-1080 -56
c-3 -7 -5 -2 -5 12 0 14 2 19 5 13 2 -7 2 -19 0 -25z m1043 -6 c1 -14 4 -13
19 6 18 21 61 31 61 14 0 -15 -85 -90 -110 -97 -20 -7 -23 -5 -14 6 7 8 8 22
3 34 -13 33 -10 53 9 58 23 5 32 -1 32 -21z m183 13 c51 -8 43 -31 -9 -27 -29
2 -35 0 -24 -8 8 -5 23 -10 33 -10 10 0 16 -4 12 -9 -3 -5 -22 -8 -43 -5 l-37
4 33 -13 c18 -7 30 -15 27 -19 -6 -6 -104 0 -113 7 -1 1 9 23 24 49 18 32 31
45 43 42 9 -2 33 -7 54 -11z m956 1 c33 5 41 4 41 -9 0 -21 -6 -24 -62 -32
l-48 -7 0 32 c0 27 3 30 14 21 9 -7 29 -9 55 -5z m-572 -18 c-3 -8 -6 -5 -6 6
-1 11 2 17 5 13 3 -3 4 -12 1 -19z m-4487 -1 c42 -9 99 -31 96 -36 -2 -3 19
-4 46 -2 35 2 53 -1 59 -10 6 -11 11 -11 21 -1 6 6 36 12 65 12 80 0 66 -29
-15 -31 -20 0 -30 -3 -22 -6 8 -2 29 -11 47 -19 17 -8 36 -14 43 -14 13 0 13
-2 -19 -53 l-23 -38 -71 3 c-40 2 -72 8 -74 14 -6 18 57 41 122 44 l30 2 -29
8 c-16 5 -34 6 -39 3 -6 -3 -7 -2 -4 3 3 6 -17 11 -46 12 -40 2 -56 -2 -76
-20 l-26 -23 24 28 24 27 -49 -1 c-29 -1 -38 -4 -21 -6 15 -2 25 -8 23 -12 -6
-9 -66 -2 -66 9 0 4 9 15 21 26 l21 19 -24 6 c-12 3 -35 0 -50 -8 -17 -8 -28
-9 -28 -3 0 5 8 10 18 11 11 0 12 2 4 6 -7 3 -10 10 -5 17 4 7 0 4 -9 -7 -10
-10 -36 -52 -58 -93 -29 -51 -47 -74 -60 -74 -18 0 -18 2 -4 38 8 20 18 44 23
52 4 8 6 27 4 43 -3 20 1 27 13 27 13 0 14 3 4 15 -7 8 -9 22 -6 31 5 13 16
15 54 10 26 -3 54 -7 62 -9z m770 -2 c-14 -16 -77 -31 -88 -20 -12 12 31 35
66 35 29 0 33 -2 22 -15z m3480 -30 c17 -9 30 -18 30 -21 0 -13 -44 -84 -51
-84 -5 0 -17 10 -28 21 -11 12 -34 23 -52 25 -18 2 -34 6 -36 8 -4 4 89 66
100 66 4 0 21 -7 37 -15z m-2250 -34 c23 -7 24 -8 5 -14 -33 -11 -88 -16 -119
-10 -27 6 -28 7 -11 20 20 14 83 16 125 4z m2609 -42 c-18 -19 -26 -25 -19
-14 24 35 43 55 47 51 2 -2 -11 -19 -28 -37z m-4878 4 c-12 -20 -14 -14 -5 12
4 9 9 14 11 11 3 -2 0 -13 -6 -23z m4663 -32 c24 -25 27 -33 16 -46 -8 -9 -21
-13 -36 -9 -20 5 -24 2 -24 -16 0 -23 -1 -23 -20 -5 -13 12 -18 25 -14 38 5
16 2 18 -15 12 -11 -3 -28 -2 -37 3 -14 8 -9 14 27 40 49 33 57 32 103 -17z
m-4440 -6 c-6 -16 -44 -41 -44 -29 0 5 40 43 47 44 1 0 0 -7 -3 -15z m4626 -9
c0 -2 -8 -10 -17 -17 -16 -13 -17 -12 -4 4 13 16 21 21 21 13z m-4460 -36 c-6
-11 -20 -20 -32 -20 -12 0 -18 3 -15 6 6 6 46 30 55 33 1 1 -2 -8 -8 -19z
m-188 -12 c-6 -6 -15 -8 -19 -4 -4 4 -1 11 7 16 19 12 27 3 12 -12z m4011 15
c-13 -2 -33 -2 -45 0 -13 2 -3 4 22 4 25 0 35 -2 23 -4z m-73 -7 c0 -2 -13 -6
-29 -8 -17 -2 -28 -1 -25 4 5 8 54 12 54 4z m341 -103 c13 -16 12 -17 -3 -4
-10 7 -18 15 -18 17 0 8 8 3 21 -13z m764 -49 c14 4 25 1 28 -7 3 -7 6 -5 6 6
1 9 8 17 18 17 12 0 9 -6 -11 -22 -15 -13 -59 -52 -97 -87 l-69 -64 16 54 c9
30 30 80 48 111 l31 57 3 -35 c3 -32 6 -35 27 -30z m-2587 14 c19 -19 14 -36
-16 -52 -33 -17 -190 -58 -308 -80 -208 -39 -892 -59 -830 -24 9 5 94 18 189
28 297 33 367 42 557 71 102 16 221 34 265 40 44 7 87 16 95 20 21 12 34 11
48 -3z m2672 -138 c0 -5 -15 -10 -32 -9 -28 0 -30 2 -13 9 28 12 45 12 45 0z
m-4139 -11 c30 -6 63 -11 74 -11 16 1 17 -1 5 -8 -18 -11 -185 -3 -210 10 -9
5 -20 7 -23 4 -3 -3 -8 -1 -12 5 -8 15 96 14 166 0z m4256 -91 c-2 -13 -4 -5
-4 17 -1 22 1 32 4 23 2 -10 2 -28 0 -40z m90 10 c-3 -7 -5 -2 -5 12 0 14 2
19 5 13 2 -7 2 -19 0 -25z m-307 12 c0 -5 -10 -10 -22 -9 -22 0 -22 1 -3 9 11
5 21 9 23 9 1 1 2 -3 2 -9z m-613 -32 c-3 -7 -5 -2 -5 12 0 14 2 19 5 13 2 -7
2 -19 0 -25z m-565 -15 c10 -9 18 -20 18 -25 0 -11 -49 24 -50 35 0 12 12 8
32 -10z m1469 -40 c-20 -81 -53 -156 -62 -141 -5 7 -9 22 -9 33 0 16 2 17 10
5 7 -12 12 -7 25 23 8 21 21 60 27 87 6 28 13 48 16 45 3 -2 -1 -26 -7 -52z
m-74 -5 c-3 -8 -6 -5 -6 6 -1 11 2 17 5 13 3 -3 4 -12 1 -19z m-3147 -25 c-66
-29 -235 -74 -359 -95 -102 -17 -134 -19 -175 -10 -60 12 -255 5 -273 -10 -14
-11 -170 -13 -233 -2 -122 20 -249 48 -270 61 -22 12 -13 13 85 6 305 -22 783
-2 1115 46 154 23 153 23 110 4z m1864 -28 c-6 -16 -34 -21 -34 -7 0 13 11 22
26 22 8 0 11 -6 8 -15z m437 -94 c-40 -132 -126 -233 -251 -294 -61 -30 -70
-32 -180 -32 -136 0 -178 15 -263 97 -45 43 -51 59 -8 21 30 -26 86 -63 131
-85 37 -18 63 -22 145 -22 92 -1 105 1 168 31 94 45 168 118 217 215 22 44 43
103 47 131 4 31 9 43 11 29 2 -13 -6 -54 -17 -91z m-581 19 c0 -5 -2 -10 -4
-10 -3 0 -8 5 -11 10 -3 6 -1 10 4 10 6 0 11 -4 11 -10z m799 -84 c7 -8 10
-24 6 -35 -6 -20 -8 -20 -31 -4 -23 15 -26 15 -39 -3 -10 -13 -17 -16 -24 -8
-8 7 -6 24 5 57 l16 47 27 -20 c15 -10 33 -26 40 -34z m722 -6 c19 0 46 -46
34 -58 -3 -3 -5 0 -5 6 0 22 -20 12 -21 -10 0 -17 -2 -19 -7 -8 -4 8 -14 15
-22 15 -8 0 -16 8 -18 19 -3 12 0 16 8 11 8 -5 11 -3 8 6 -3 8 -11 14 -19 14
-15 0 -27 20 -28 48 -1 14 5 12 25 -12 14 -17 34 -31 45 -31z m-765 -122 c3
-11 0 -25 -6 -33 -9 -11 -18 -7 -46 25 -31 34 -34 42 -24 60 l12 22 29 -28
c16 -15 31 -36 35 -46z m-66 -28 c29 -29 25 -64 -11 -105 -39 -44 -63 -33 -28
14 18 25 20 33 9 45 -7 9 -16 13 -22 10 -5 -4 -5 -10 1 -17 6 -8 5 -19 -5 -31
-11 -16 -16 -17 -29 -6 -22 18 -19 35 16 75 36 41 42 42 69 15z m-815 -121 c3
-10 12 -16 18 -13 7 2 21 -2 32 -10 20 -14 20 -14 0 -36 -38 -42 -52 -44 -100
-9 -25 18 -45 38 -45 44 0 18 27 38 40 30 6 -4 10 5 10 21 0 26 1 27 20 9 11
-10 22 -26 25 -36z m713 14 c22 -57 23 -70 6 -84 -13 -11 -18 -11 -21 -1 -3 6
-11 12 -19 12 -10 0 -13 -7 -9 -22 4 -16 0 -27 -15 -36 -17 -10 -20 -10 -20 3
0 20 -38 57 -50 50 -6 -4 -10 -18 -10 -32 0 -18 4 -24 15 -19 10 3 15 -1 15
-13 0 -13 -13 -24 -40 -35 -22 -9 -45 -16 -50 -16 -15 0 -12 22 6 34 13 10 14
16 3 40 -12 25 -11 30 6 42 10 8 28 14 40 14 11 0 26 9 33 20 13 21 42 28 42
10 0 -5 5 -10 11 -10 6 0 9 10 8 23 -7 49 32 65 49 20z m-598 -73 c12 -12 38
-22 61 -24 64 -7 64 -16 1 -60 -39 -26 -40 -27 -79 -11 l-39 16 10 49 c11 56
17 59 46 30z m358 -77 c10 -37 10 -48 0 -55 -21 -13 -29 -9 -35 12 -5 20 -6
20 -19 2 -14 -20 -54 -36 -54 -22 0 20 39 98 52 103 33 14 44 6 56 -40z m-116
20 c3 -10 -3 -34 -13 -54 -18 -35 -18 -36 -68 -29 -28 3 -53 9 -57 13 -14 14
9 25 44 21 39 -4 35 0 -9 10 -22 5 -25 10 -21 31 4 23 8 25 62 25 48 0 59 -3
62 -17z m148 7 c0 -5 -7 -10 -15 -10 -8 0 -15 5 -15 10 0 6 7 10 15 10 8 0 15
-4 15 -10z"/>
<path d="M4361 4154 c0 -11 3 -14 6 -6 3 7 2 16 -1 19 -3 4 -6 -2 -5 -13z"/>
<path d="M4195 4109 c-4 -6 -5 -12 -2 -15 2 -3 7 2 10 11 7 17 1 20 -8 4z"/>
<path d="M4160 4100 c0 -5 5 -10 10 -10 6 0 10 5 10 10 0 6 -4 10 -10 10 -5 0
-10 -4 -10 -10z"/>
<path d="M4085 4080 c-19 -7 -19 -8 -2 -15 19 -8 31 -2 26 13 -2 5 -13 6 -24
2z"/>
<path d="M4020 4070 c0 -15 21 -23 32 -12 6 6 2 11 -11 15 -12 3 -21 1 -21 -3z"/>
<path d="M1650 3980 c0 -5 4 -10 9 -10 6 0 13 5 16 10 3 6 -1 10 -9 10 -9 0
-16 -4 -16 -10z"/>
<path d="M5757 3993 c-10 -9 -9 -23 2 -23 5 0 11 7 15 15 5 15 -5 20 -17 8z"/>
<path d="M5892 3909 c2 -7 10 -15 17 -17 8 -3 12 1 9 9 -2 7 -10 15 -17 17 -8
3 -12 -1 -9 -9z"/>
<path d="M5135 2890 c3 -5 10 -10 16 -10 5 0 9 5 9 10 0 6 -7 10 -16 10 -8 0
-12 -4 -9 -10z"/>
<path d="M5295 2820 c-3 -5 -1 -10 4 -10 6 0 11 5 11 10 0 6 -2 10 -4 10 -3 0
-8 -4 -11 -10z"/>
<path d="M5522 5184 c-14 -10 -22 -25 -21 -42 1 -26 1 -26 10 5 10 33 19 37
109 46 23 3 16 4 -20 5 -36 1 -63 -3 -78 -14z"/>
<path d="M3418 5157 c-16 -6 -28 -15 -28 -19 0 -5 9 -4 19 2 11 5 37 14 58 19
35 8 35 9 8 9 -16 0 -42 -5 -57 -11z"/>
<path d="M5870 5072 c0 -12 19 -26 26 -19 2 2 -2 10 -11 17 -9 8 -15 8 -15 2z"/>
<path d="M5907 5041 c-5 -20 46 -101 64 -101 5 0 9 -7 9 -15 0 -8 5 -15 10
-15 6 0 10 -6 10 -14 0 -16 49 -70 57 -63 3 4 -4 22 -15 42 -18 29 -19 35 -6
35 9 0 14 4 12 9 -5 16 -119 141 -127 141 -5 0 -11 -9 -14 -19z"/>
<path d="M5540 5035 c0 -5 5 -17 10 -25 5 -8 10 -10 10 -5 0 6 -5 17 -10 25
-5 8 -10 11 -10 5z"/>
<path d="M5560 4988 c0 -12 82 -204 91 -213 5 -5 -11 40 -36 100 -43 102 -55
127 -55 113z"/>
<path d="M6570 4925 c0 -4 7 -19 15 -35 9 -17 14 -30 11 -30 -2 0 -28 11 -58
25 -29 14 -60 25 -68 25 -8 0 11 -11 42 -24 31 -13 74 -37 96 -55 22 -17 42
-31 45 -31 8 0 -21 80 -39 107 -13 20 -44 32 -44 18z"/>
<path d="M4688 4867 c-102 -29 -170 -103 -148 -161 32 -85 252 -88 353 -5 64
52 65 107 5 152 -33 25 -144 32 -210 14z m139 -53 c-3 -3 -12 -4 -19 -1 -8 3
-5 6 6 6 11 1 17 -2 13 -5z m-193 -86 c12 -13 31 -28 42 -34 25 -15 17 -22
-31 -25 -29 -2 -39 1 -37 10 2 8 -3 11 -12 8 -10 -4 -20 2 -27 14 -6 11 -9 22
-7 23 6 6 43 25 47 26 2 0 14 -10 25 -22z"/>
<path d="M6808 4823 c7 -3 16 -2 19 1 4 3 -2 6 -13 5 -11 0 -14 -3 -6 -6z"/>
<path d="M3882 4801 c-58 -20 -117 -70 -126 -107 -9 -34 18 -79 56 -95 52 -22
173 -17 233 10 126 56 151 155 50 197 -47 19 -149 17 -213 -5z m158 -41 c0 -5
-7 -10 -16 -10 -8 0 -12 5 -9 10 3 6 10 10 16 10 5 0 9 -4 9 -10z m-145 -124
c35 -9 32 -23 -5 -22 -16 1 -30 4 -30 7 0 3 -12 4 -26 1 -18 -3 -25 -1 -20 6
3 6 -3 20 -16 31 -23 22 -23 23 7 39 16 9 23 5 42 -23 12 -18 34 -35 48 -39z"/>
<path d="M6813 4793 c9 -2 23 -2 30 0 6 3 -1 5 -18 5 -16 0 -22 -2 -12 -5z"/>
<path d="M6009 4760 c-31 -23 -176 -73 -194 -66 -7 2 -30 1 -51 -4 -31 -7 -43
-5 -58 8 -19 17 -19 16 -1 -10 10 -17 26 -28 39 -28 70 0 296 84 296 110 0 13
0 13 -31 -10z"/>
<path d="M6811 4766 c2 -2 22 -6 44 -9 27 -4 35 -3 25 3 -14 9 -79 15 -69 6z"/>
<path d="M5670 4740 c6 -11 13 -20 16 -20 2 0 0 9 -6 20 -6 11 -13 20 -16 20
-2 0 0 -9 6 -20z"/>
<path d="M6850 4731 c20 -4 42 -11 50 -15 8 -4 6 0 -4 8 -11 9 -34 15 -50 15
-31 -1 -31 -1 4 -8z"/>
<path d="M6865 4700 c11 -5 27 -9 35 -9 13 -1 13 0 0 9 -8 5 -24 9 -35 9 l-20
0 20 -9z"/>
<path d="M6485 4658 c-22 -4 -57 -7 -77 -7 -20 -1 -39 -5 -42 -10 -8 -13 8
-50 35 -81 20 -24 20 -24 -1 13 -13 22 -19 42 -14 47 5 4 63 13 129 19 109 10
121 9 133 -6 11 -15 12 -15 12 -1 0 9 -6 20 -12 25 -16 10 -109 10 -163 1z"/>
<path d="M5760 4651 c-32 -6 -33 -7 -11 -13 13 -4 20 -11 16 -17 -4 -7 4 -11
19 -11 14 0 27 4 30 9 7 11 -3 42 -13 40 -3 -1 -22 -5 -41 -8z"/>
<path d="M5692 4630 c-10 -17 -10 -20 3 -20 8 0 15 9 15 20 0 11 -1 20 -3 20
-1 0 -8 -9 -15 -20z"/>
<path d="M4835 4628 c-88 -4 -245 -15 -350 -22 l-190 -14 220 5 c157 3 216 2
205 -6 -11 -8 7 -10 65 -6 65 4 72 3 40 -5 -22 -5 -67 -9 -100 -9 -130 1 -165
-1 -165 -12 0 -5 8 -9 18 -8 36 3 53 -1 46 -12 -10 -16 61 -6 211 30 l120 30
-75 1 c-68 2 -71 3 -35 11 22 4 76 8 120 9 44 1 98 5 120 9 37 8 34 9 -25 8
-36 0 -137 -4 -225 -9z"/>
<path d="M5243 4623 c9 -2 23 -2 30 0 6 3 -1 5 -18 5 -16 0 -22 -2 -12 -5z"/>
<path d="M5178 4613 c6 -2 18 -2 25 0 6 3 1 5 -13 5 -14 0 -19 -2 -12 -5z"/>
<path d="M5118 4603 c6 -2 18 -2 25 0 6 3 1 5 -13 5 -14 0 -19 -2 -12 -5z"/>
<path d="M5078 4593 c7 -3 16 -2 19 1 4 3 -2 6 -13 5 -11 0 -14 -3 -6 -6z"/>
<path d="M5352 4570 c0 -19 2 -27 5 -17 2 9 2 25 0 35 -3 9 -5 1 -5 -18z"/>
<path d="M4198 4583 c17 -2 47 -2 65 0 17 2 3 4 -33 4 -36 0 -50 -2 -32 -4z"/>
<path d="M3905 4565 c-77 -6 -131 -13 -121 -13 20 -2 20 -2 0 -18 -18 -15 -17
-15 16 -9 123 22 135 23 115 9 -18 -14 -18 -14 1 -14 11 0 24 4 30 9 10 11 74
29 144 41 l45 7 -45 0 c-25 0 -108 -5 -185 -12z"/>
<path d="M4988 4573 c7 -3 16 -2 19 1 4 3 -2 6 -13 5 -11 0 -14 -3 -6 -6z"/>
<path d="M4076 4552 c-3 -2 -26 -10 -53 -17 -63 -17 -20 -18 67 -1 62 12 63
12 27 17 -21 3 -39 3 -41 1z"/>
<path d="M6681 4544 c0 -11 3 -14 6 -6 3 7 2 16 -1 19 -3 4 -6 -2 -5 -13z"/>
<path d="M5515 4540 c-3 -6 1 -7 9 -4 18 7 21 14 7 14 -6 0 -13 -4 -16 -10z"/>
<path d="M3599 4492 c-24 -7 -60 -18 -79 -22 -26 -7 -20 -8 25 -3 33 3 93 7
133 8 108 4 104 13 -14 29 -11 1 -41 -4 -65 -12z"/>
<path d="M6690 4486 c0 -21 -6 -25 -50 -31 -54 -7 -57 -13 -39 -64 10 -27 15
-31 48 -31 42 0 66 -20 82 -66 8 -26 8 -25 4 11 -2 22 -9 41 -15 43 -5 2 -10
13 -10 23 0 11 4 18 8 15 10 -6 7 30 -7 82 -13 47 -21 54 -21 18z"/>
<path d="M3428 4493 c-10 -2 -18 -8 -18 -13 0 -5 -12 -13 -27 -18 -25 -9 -22
-10 27 -11 38 0 50 2 40 9 -12 8 -12 10 3 16 9 3 14 10 11 15 -5 9 -8 10 -36
2z"/>
<path d="M5773 4493 c9 -2 23 -2 30 0 6 3 -1 5 -18 5 -16 0 -22 -2 -12 -5z"/>
<path d="M3236 4461 c-29 -11 -4 -22 33 -15 17 4 28 10 25 15 -6 11 -31 11
-58 0z"/>
<path d="M4260 4460 c8 -5 20 -10 25 -10 6 0 3 5 -5 10 -8 5 -19 10 -25 10 -5
0 -3 -5 5 -10z"/>
<path d="M4078 4443 c6 -2 18 -2 25 0 6 3 1 5 -13 5 -14 0 -19 -2 -12 -5z"/>
<path d="M5798 4443 c7 -3 16 -2 19 1 4 3 -2 6 -13 5 -11 0 -14 -3 -6 -6z"/>
<path d="M6310 4420 c0 -39 31 -100 51 -100 10 0 19 5 19 10 0 6 -7 10 -16 8
-10 -2 -19 3 -21 10 -3 6 3 12 11 12 14 0 14 5 -4 40 -22 43 -40 52 -40 20z"/>
<path d="M5807 4423 c-14 -14 -6 -23 21 -23 37 0 60 15 37 24 -22 8 -50 8 -58
-1z"/>
<path d="M6196 4381 c-3 -26 -2 -59 3 -72 5 -13 10 -21 10 -18 1 4 5 29 11 58
9 50 6 81 -10 81 -4 0 -10 -22 -14 -49z"/>
<path d="M5890 4360 c-8 -5 -25 -10 -37 -10 -13 0 -23 -4 -23 -8 0 -13 83 2
88 16 4 14 -7 15 -28 2z"/>
<path d="M5931 4354 c0 -11 3 -14 6 -6 3 7 2 16 -1 19 -3 4 -6 -2 -5 -13z"/>
<path d="M2415 4313 c-27 -14 -57 -32 -66 -40 -9 -7 -22 -13 -29 -11 -7 2 -15
-3 -17 -9 -7 -19 77 -6 177 28 92 31 71 41 -30 14 -52 -13 -54 -13 -34 3 12 9
30 22 40 29 32 20 12 13 -41 -14z"/>
<path d="M5948 4283 c7 -3 16 -2 19 1 4 3 -2 6 -13 5 -11 0 -14 -3 -6 -6z"/>
<path d="M6271 4265 c-1 -16 48 -164 64 -196 13 -25 21 -29 56 -29 33 0 40 -3
37 -17 -2 -12 -18 -21 -51 -27 -26 -4 -47 -14 -47 -21 0 -9 11 -10 50 -2 46 9
50 12 56 43 3 19 3 50 0 69 -7 34 -9 35 -51 35 -50 0 -54 5 -92 100 -12 30
-22 51 -22 45z"/>
<path d="M6741 4240 c0 -14 4 -32 9 -40 9 -13 10 -13 9 0 -1 8 -5 26 -9 40
l-8 25 -1 -25z"/>
<path d="M6353 4153 c9 -2 23 -2 30 0 6 3 -1 5 -18 5 -16 0 -22 -2 -12 -5z"/>
<path d="M6751 4144 c0 -11 3 -14 6 -6 3 7 2 16 -1 19 -3 4 -6 -2 -5 -13z"/>
<path d="M6450 4067 c0 -78 -16 -117 -50 -117 -45 0 -50 -9 -50 -91 0 -43 3
-79 6 -79 3 0 30 7 59 15 45 14 54 21 68 53 31 74 47 209 31 270 -5 16 -14 22
-35 22 l-29 0 0 -73z"/>
<path d="M6674 4081 c-9 -68 -25 -87 -77 -95 l-44 -7 -13 -75 c-6 -42 -10 -77
-8 -79 7 -7 117 22 133 35 20 17 51 121 60 200 7 65 7 65 -19 66 -23 2 -26 -3
-32 -45z"/>
<path d="M5945 4010 c10 -11 20 -20 23 -20 3 0 -3 9 -13 20 -10 11 -20 20 -23
20 -3 0 3 -9 13 -20z"/>
</g>
</svg>
